
<!DOCTYPE svg PUBLIC "-//W3C//DTD SVG 1.1//EN" "http://www.w3.org/Graphics/SVG/1.1/DTD/svg11.dtd">
<!-- Created with Vectornator (http://vectornator.io/) -->
<svg height="100%" stroke-miterlimit="10" style="fill-rule:nonzero;clip-rule:evenodd;stroke-linecap:round;stroke-linejoin:round;" version="1.1" viewBox="0 0 512 512" width="100%" xml:space="preserve" xmlns="http://www.w3.org/2000/svg" xmlns:xlink="http://www.w3.org/1999/xlink">
<defs/>

<path d="M104.235 476.753C101.463 476.753 98.7958 475.655 96.84 473.689L39.5141 416.363C35.4247 412.273 35.4247 405.663 39.5141 401.574L398.07 43.0179C400.036 41.0516 402.682 39.9534 405.465 39.9534L405.465 39.9534C408.247 39.9534 410.903 41.0516 412.859 43.0179L470.174 100.344C474.264 104.433 474.264 111.043 470.174 115.133L111.629 473.689C109.673 475.655 107.006 476.753 104.235 476.753Z" fill="currentColor" fill-rule="nonzero" opacity="1" stroke="none"/>
<path d="M445.648 37.5583C453.66 37.5583 461.19 40.6856 466.848 46.3439C478.531 58.0371 478.531 77.062 466.838 88.7552C465.478 90.0939 464.244 91.349 463.094 92.4995L420.672 50.0882C422.868 47.8918 424.416 46.3439 424.416 46.3439C430.095 40.6751 437.626 37.5583 445.648 37.5583L445.648 37.5583M445.648 16.6403C432.616 16.6403 419.584 21.6188 409.638 31.5548L391.115 50.0987L391.115 50.0987L463.115 122.088C463.177 122.036 481.648 103.544 481.648 103.544C501.51 83.6616 501.51 51.427 481.669 31.5548C471.701 21.6083 458.669 16.6403 445.648 16.6403L445.648 16.6403Z" fill="currentColor" fill-rule="nonzero" opacity="1" stroke="none"/>
<path d="M46.9087 408.968L104.224 466.284L25.8965 487.296L46.9087 408.968Z" fill="none" opacity="1" stroke="currentColor" stroke-linecap="butt" stroke-linejoin="round" stroke-width="20"/>
<path d="M186.139 284.998L284.245 186.986L270.784 173.525L242.471 201.838L240.861 200.227L171.078 270.01L186.139 284.998ZM254.384 157.126L239.407 142.148L200.635 180.92L185.846 166.131L224.618 127.359L208.03 110.771L179.717 139.084L164.928 124.295L193.241 95.9824L176.663 79.3944L137.881 118.166L123.092 103.377L161.864 64.5949L145.286 48.0173L116.963 76.3299L102.174 61.5408L130.487 33.2178L98.4611 1.19233L0 99.6639L156.258 255.252L254.384 157.126ZM490.423 390.77L462.111 419.093L447.321 404.293L475.634 375.981L459.046 359.393L420.274 398.175L405.485 383.375L444.257 344.604L427.669 328.016L399.356 356.339L384.567 341.539L412.88 313.226L396.292 296.638L357.52 335.421L342.731 320.621L381.503 281.849L364.915 265.261L336.602 293.584L327.765 284.747L257.616 354.895L413.539 510.808L512 412.347L490.423 390.77Z" fill="currentColor" fill-rule="nonzero" opacity="1" stroke="none"/>

</svg>
