<?xml version="1.0" encoding="UTF-8" standalone="no"?>
<!DOCTYPE svg PUBLIC "-//W3C//DTD SVG 1.1//EN" "http://www.w3.org/Graphics/SVG/1.1/DTD/svg11.dtd">
<!-- Created with Vectornator (http://vectornator.io/) -->
<svg height="100%" stroke-miterlimit="10" style="fill-rule:nonzero;clip-rule:evenodd;stroke-linecap:round;stroke-linejoin:round;" version="1.1" viewBox="0 0 512 512" width="100%" xml:space="preserve" xmlns="http://www.w3.org/2000/svg" xmlns:xlink="http://www.w3.org/1999/xlink">
<defs/>
<g id="Layer-1">
<path d="M0 452.923L512 452.923L512 472.615C512 472.615 512 492.308 492.308 492.308L19.6923 492.308C8.84185 492.308 0 483.466 0 472.615L0 452.923ZM413.538 19.6923L98.4615 19.6923C65.8511 19.6923 39.3846 46.1588 39.3846 78.7692L39.3846 275.692C39.3846 308.303 65.8511 334.769 98.4615 334.769L413.538 334.769C446.149 334.769 472.615 308.303 472.615 275.692L472.615 78.7692C472.615 46.1588 446.149 19.6923 413.538 19.6923ZM78.7692 275.692L78.7692 78.7692C78.7692 67.9188 87.6111 59.0769 98.4615 59.0769L413.538 59.0769C424.389 59.0769 433.231 67.9188 433.231 78.7692L433.231 275.692C433.231 286.543 424.389 295.385 413.538 295.385L98.4615 295.385C87.6111 295.385 78.7692 286.543 78.7692 275.692Z" fill="#000000" fill-rule="nonzero" opacity="1" stroke="none"/>
<path d="M472.615 331.106C469.09 322.166 459.362 315.097 450.836 315.097L61.184 315.097C45.6468 315.116 39.3846 331.106 39.3846 331.106L0 433.231L182.193 433.231L190.543 411.392C190.543 411.392 196.884 393.846 216.576 393.846L295.345 393.846C306.117 393.846 317.696 401.231 321.812 411.392L329.767 433.231L512 433.231L472.615 331.106ZM98.4615 374.154L118.154 334.769L393.846 334.769L413.538 374.154L98.4615 374.154Z" fill="#000000" fill-rule="nonzero" opacity="1" stroke="none"/>
<path d="M295.385 315.077L275.692 315.077L288.985 393.846L308.677 393.846L295.385 315.077ZM236.308 315.077L216.615 315.077L206.769 393.846L226.462 393.846L236.308 315.077ZM177.231 315.077L157.538 315.077L137.846 393.846L157.538 393.846L177.231 315.077ZM354.462 315.077L334.769 315.077L354.462 393.846L374.154 393.846L354.462 315.077Z" fill="#000000" fill-rule="nonzero" opacity="1" stroke="none"/>
<path d="M90.0332 354.462L420.254 354.462" fill="none" opacity="1" stroke="#000000" stroke-linecap="butt" stroke-linejoin="miter" stroke-width="13"/>
</g>
</svg>
