<?xml version="1.0" encoding="UTF-8" standalone="no"?>
<!DOCTYPE svg PUBLIC "-//W3C//DTD SVG 1.1//EN" "http://www.w3.org/Graphics/SVG/1.1/DTD/svg11.dtd">
<!-- Created with Vectornator (http://vectornator.io/) -->
<svg height="100%" stroke-miterlimit="10" style="fill-rule:nonzero;clip-rule:evenodd;stroke-linecap:round;stroke-linejoin:round;" version="1.1" viewBox="0 0 512 512" width="100%" xml:space="preserve" xmlns="http://www.w3.org/2000/svg" xmlns:xlink="http://www.w3.org/1999/xlink">
<defs/>
<clipPath id="ArtboardFrame">
<rect height="512" width="512" x="0" y="0"/>
</clipPath>
<g clip-path="url(#ArtboardFrame)" id="Layer-1">
<g opacity="1">
<path d="M356.822 148.615L397.495 200.102L498 145.22M498 72.0449L397.495 17.1633L356.456 69.1077" fill="none" opacity="1" stroke="#000000" stroke-linecap="round" stroke-linejoin="round" stroke-width="29.44"/>
<path d="M396.367 494.837L50.8163 494.837C44.9013 494.837 40.6531 490.578 40.6531 484.673L40.6531 433.857C40.6531 416.742 53.5299 403.367 70.0147 403.367L377.169 403.367C393.654 403.367 406.531 416.742 406.531 433.857L406.531 484.673C406.531 490.578 402.272 494.837 396.367 494.837ZM334.544 179.776L305.752 179.776C288.474 179.776 274.408 165.72 274.408 148.442L274.408 68.8231C274.408 51.5456 288.474 37.4898 305.752 37.4898L334.544 37.4898C351.822 37.4898 365.878 51.5456 365.878 68.8231L365.878 148.432C365.878 165.72 351.822 179.776 334.544 179.776ZM91.4694 17.1633C41.0393 17.1633 0 58.2025 0 108.633C0 159.063 41.0393 200.102 91.4694 200.102C141.9 200.102 182.939 159.063 182.939 108.633C182.939 58.2025 141.9 17.1633 91.4694 17.1633ZM91.4694 155.821C65.4616 155.821 44.2915 134.64 44.2915 108.633C44.2915 82.6249 65.4616 61.4446 91.4694 61.4446C117.477 61.4446 138.647 82.6249 138.647 108.633C138.647 134.64 117.477 155.821 91.4694 155.821Z" fill="#000000" fill-rule="nonzero" opacity="1" stroke="none"/>
<path d="M298.332 382.827L180.896 175.436C160.488 202.684 128.057 220.429 91.4694 220.429C78.9991 220.429 67.0471 218.294 55.837 214.503L144.989 382.838L298.332 382.838L298.332 382.827ZM253.899 169.612C253.136 166.096 253.238 153.026 253.238 149.286L253.238 67.9796C253.238 64.2395 253.147 61.3328 253.899 57.8163L190.043 57.8163C198.102 73.2543 203.265 90.044 203.265 108.633C203.265 127.221 198.102 154.174 190.043 169.612L253.899 169.612Z" fill="#000000" fill-rule="nonzero" opacity="1" stroke="none"/>
</g>
</g>
</svg>
