<?xml version="1.0" encoding="UTF-8" standalone="no"?>
<!DOCTYPE svg PUBLIC "-//W3C//DTD SVG 1.1//EN" "http://www.w3.org/Graphics/SVG/1.1/DTD/svg11.dtd">
<!-- Created with Vectornator (http://vectornator.io/) -->
<svg height="100%" stroke-miterlimit="10" style="fill-rule:nonzero;clip-rule:evenodd;stroke-linecap:round;stroke-linejoin:round;" version="1.1" viewBox="0 0 512 512" width="100%" xml:space="preserve" xmlns="http://www.w3.org/2000/svg" xmlns:xlink="http://www.w3.org/1999/xlink">
<defs/>
<g id="Layer-1">
<path d="M63.748 405.561C25.4096 435.025 0 416.229 0 511.989C95.75 511.989 81.6904 481.918 106.417 448.231M500.917 0.202679C497.684 0.256016 421.029 2.01613 346.688 39.0211C319.807 52.4299 296.029 69.3803 275.985 89.4029C215 150.388 95.3553 302.291 90.299 308.734L89.0722 310.291L88.4855 312.19C86.7574 317.791 84.5386 339.488 128.552 383.512C162.218 417.167 182.955 424.24 194.423 424.24C197.015 424.24 198.796 423.856 199.831 423.536L201.73 422.949L203.287 421.722C209.794 416.591 363.329 295.25 422.586 236.015C442.566 216.003 459.485 192.225 472.851 165.344C509.675 91.1417 511.701 14.3262 511.776 11.094L512 0.0106673L500.917 0.202679ZM351.766 202.882C328.202 202.882 309.097 183.777 309.097 160.213C309.097 136.649 328.202 117.543 351.766 117.543C375.33 117.543 394.435 136.649 394.435 160.213C394.435 183.777 375.33 202.882 351.766 202.882ZM216.483 438.481L214.925 439.707L213.571 440.774L224.089 482.814C224.974 486.377 227.641 489.236 231.129 490.367C232.207 490.719 233.316 490.9 234.425 490.9C236.879 490.9 239.311 490.047 241.252 488.436L305.256 435.099C307.689 433.062 309.097 430.064 309.097 426.896L309.097 363.639C261.254 403.097 219.822 435.846 216.483 438.481ZM72.3245 297.075L73.5299 295.538C76.1328 292.232 108.721 250.853 148.244 202.871L85.0827 202.871C81.9145 202.871 78.9169 204.279 76.8901 206.712L23.5535 270.716C21.2067 273.542 20.4599 277.372 21.6014 280.86C22.7428 284.348 25.5909 287.005 29.1538 287.89L71.2471 298.419L72.3245 297.075ZM113.468 398.585C93.4885 378.594 81.4238 361.793 74.49 347.787L65.4228 363.041C59.3957 373.698 69.2203 391.982 94.6299 417.381C115.399 438.139 130.888 448.231 141.982 448.231L141.982 448.231C145.321 448.231 147.636 447.313 149.151 446.449L164.202 437.531C148.863 430 132.072 417.189 113.468 398.585Z" fill="#000000" fill-rule="nonzero" opacity="1" stroke="none"/>
</g>
</svg>
