<?xml version="1.0" encoding="UTF-8" standalone="no"?>
<!DOCTYPE svg PUBLIC "-//W3C//DTD SVG 1.1//EN" "http://www.w3.org/Graphics/SVG/1.1/DTD/svg11.dtd">
<!-- Created with Vectornator (http://vectornator.io/) -->
<svg height="100%" stroke-miterlimit="10" style="fill-rule:nonzero;clip-rule:evenodd;stroke-linecap:round;stroke-linejoin:round;" version="1.1" viewBox="0 0 512 512" width="100%" xml:space="preserve" xmlns="http://www.w3.org/2000/svg" xmlns:xlink="http://www.w3.org/1999/xlink">
<defs>
<filter color-interpolation-filters="sRGB" filterUnits="userSpaceOnUse" height="105.763" id="Filter" width="105.763" x="365.205" y="39.8361">
<feGaussianBlur in="SourceGraphic" result="Blur" stdDeviation="0.223481"/>
</filter>
</defs>
<clipPath id="ArtboardFrame">
<rect height="512" width="512" x="0" y="0"/>
</clipPath>
<g clip-path="url(#ArtboardFrame)" id="Layer-1">
<g opacity="1">
<path d="M494.925 64.9701C486.387 73.5078 471.446 73.5078 462.909 64.9701L447.968 50.0292C439.43 41.4916 439.43 26.5507 447.968 18.0131C456.505 9.47542 473.581 24.4163 497.059 0.937776L512 15.8787C488.521 37.2228 503.462 56.4325 494.925 64.9701Z" fill="#000000" fill-rule="nonzero" opacity="1" stroke="none"/>
<path d="M277.215 272.008L238.795 233.589L479.984 15.8787L494.925 30.8195L277.215 272.008ZM132.075 338.175L170.494 376.594L68.0423 466.24L42.4294 440.627L132.075 338.175Z" fill="#000000" fill-rule="nonzero" opacity="1" stroke="none"/>
<path d="M258.005 158.884C281.484 158.884 304.962 180.228 313.5 190.9L315.634 193.035L317.769 195.169C326.306 201.572 368.994 239.992 341.247 278.411C336.978 282.68 332.709 289.083 328.441 297.621C324.172 297.621 317.769 297.621 315.634 297.621C285.752 297.621 262.274 318.965 247.333 333.906C200.376 380.863 208.914 417.148 223.854 438.492C219.586 444.895 213.182 449.164 208.914 453.433C191.838 470.508 174.763 479.046 155.553 479.046C129.94 479.046 102.193 464.105 76.58 436.358L76.58 436.358L76.58 436.358C48.8326 410.745 33.8917 382.998 33.8917 357.385C33.8917 338.175 42.4294 321.1 59.5047 304.024C63.7735 299.755 68.0423 295.487 74.4456 289.083C85.1176 297.621 97.9241 299.755 108.596 299.755C138.478 299.755 159.822 280.546 176.897 263.47C208.914 231.454 215.317 203.707 211.048 182.363C219.586 178.094 225.989 171.691 230.258 169.556C238.795 163.153 249.467 158.884 258.005 158.884M258.005 126.868C243.064 126.868 228.123 131.137 211.048 143.943C202.51 150.347 187.569 158.884 170.494 171.691C191.838 195.169 176.897 218.648 153.419 242.126C138.478 257.067 123.537 267.739 108.596 267.739C100.058 267.739 91.5209 263.47 82.9832 254.933C78.7144 250.664 76.58 246.395 74.4456 242.126C59.5047 254.933 46.6982 265.605 33.8917 278.411C-21.603 333.906-4.52768 402.207 53.1014 457.702C85.1176 491.853 121.403 511.062 155.553 511.062C181.166 511.062 206.779 500.39 230.258 476.912C243.064 464.105 253.736 451.299 266.543 436.358C262.274 434.223 258.005 432.089 253.736 427.82C230.258 404.342 245.199 380.863 268.677 355.25C283.618 340.309 298.559 329.637 313.5 329.637C322.037 329.637 330.575 331.772 336.978 340.309C349.785 323.234 358.322 308.293 366.86 299.755C413.817 235.723 345.516 178.094 336.978 171.691C334.844 165.287 300.693 126.868 258.005 126.868L258.005 126.868Z" fill="#000000" fill-rule="nonzero" opacity="1" stroke="none"/>
<path d="M373.263 77.7766L433.027 137.54M403.145 47.8948L462.909 107.658" fill="none" filter="url(#Filter)" opacity="1" stroke="#000000" stroke-linecap="round" stroke-linejoin="round" stroke-width="15"/>
</g>
</g>
</svg>
