<?xml version="1.0" encoding="UTF-8" standalone="no"?>
<!DOCTYPE svg PUBLIC "-//W3C//DTD SVG 1.1//EN" "http://www.w3.org/Graphics/SVG/1.1/DTD/svg11.dtd">
<!-- Created with Vectornator (http://vectornator.io/) -->
<svg height="100%" stroke-miterlimit="10" style="fill-rule:nonzero;clip-rule:evenodd;stroke-linecap:round;stroke-linejoin:round;" version="1.1" viewBox="0 0 3840 2160" width="100%" xml:space="preserve" xmlns="http://www.w3.org/2000/svg" xmlns:xlink="http://www.w3.org/1999/xlink">
<defs/>
<g id="Layer-1">
<path d="M100 0C44.7715 0 3.33574e-07 44.7715 0 100L0 2060C0 2115.23 44.7715 2160 100 2160L3740 2160C3795.23 2160 3840 2115.23 3840 2060L3840 100C3840 44.7715 3795.23 3.33574e-07 3740 0L100 0ZM2680 641L2770 641L2770 1397L2680 1397L2680 641ZM2003 687C2021 687 2036.5 693.5 2049.5 706.5C2062.5 719.5 2069 735 2069 753C2069 771 2062.5 786.5 2049.5 799.5C2036.5 812.5 2021 819 2003 819C1985 819 1969.5 812.5 1956.5 799.5C1943.5 786.5 1937 771 1937 753C1937 735 1943.5 719.5 1956.5 706.5C1969.5 693.5 1985 687 2003 687ZM752 689L839 689L1142 1397L1030 1397L959 1222L622 1222L552 1397L440 1397L752 689ZM1616 790L1706 790L1706 923L1835 923L1835 1001L1706 1001L1706 1216C1706 1229.33 1706.33 1242.5 1707 1255.5C1707.67 1268.5 1710.17 1280.17 1714.5 1290.5C1718.83 1300.83 1725.5 1309.17 1734.5 1315.5C1743.5 1321.83 1756.67 1325 1774 1325C1784.67 1325 1795.67 1324 1807 1322C1818.33 1320 1828.67 1316.33 1838 1311L1838 1393C1827.33 1399 1813.5 1403.17 1796.5 1405.5C1779.5 1407.83 1766.33 1409 1757 1409C1722.33 1409 1695.5 1404.17 1676.5 1394.5C1657.5 1384.83 1643.5 1372.33 1634.5 1357C1625.5 1341.67 1620.17 1324.5 1618.5 1305.5C1616.83 1286.5 1616 1267.33 1616 1248L1616 1001L1512 1001L1512 923L1616 923L1616 790ZM790 813L656 1138L924 1138L792 813L790 813ZM1445 911C1459.67 911 1473 913 1485 917L1481 1014C1473.67 1012 1466.33 1010.33 1459 1009C1451.67 1007.67 1444.33 1007 1437 1007C1393 1007 1359.33 1019.33 1336 1044C1312.67 1068.67 1301 1107 1301 1159L1301 1397L1211 1397L1211 923L1301 923L1301 996L1303 996C1309 983.333 1317 971.833 1327 961.5C1337 951.167 1348.17 942.333 1360.5 935C1372.83 927.667 1386.33 921.833 1401 917.5C1415.67 913.167 1430.33 911 1445 911ZM3130 911C3172 911 3207.5 918.333 3236.5 933C3265.5 947.667 3289.33 966.833 3308 990.5C3326.67 1014.17 3340.17 1040.83 3348.5 1070.5C3356.83 1100.17 3361 1130.33 3361 1161L3361 1193L2981 1193C2981 1213.67 2985.5 1232.5 2994.5 1249.5C3003.5 1266.5 3015.33 1281 3030 1293C3044.67 1305 3061.67 1314.33 3081 1321C3100.33 1327.67 3120.33 1331 3141 1331C3169 1331 3193.33 1324.5 3214 1311.5C3234.67 1298.5 3253.67 1281.33 3271 1260L3339 1312C3289 1376.67 3219 1409 3129 1409C3091.67 1409 3057.83 1402.67 3027.5 1390C2997.17 1377.33 2971.5 1359.83 2950.5 1337.5C2929.5 1315.17 2913.33 1288.83 2902 1258.5C2890.67 1228.17 2885 1195.33 2885 1160C2885 1124.67 2891.17 1091.83 2903.5 1061.5C2915.83 1031.17 2932.83 1004.83 2954.5 982.5C2976.17 960.167 3002 942.667 3032 930C3062 917.333 3094.67 911 3130 911ZM2416 912C2450.67 912 2483.83 918.167 2515.5 930.5C2547.17 942.833 2574.67 961.667 2598 987L2530 1049C2513.33 1031.67 2495.83 1018.5 2477.5 1009.5C2459.17 1000.5 2437.33 996 2412 996C2387.33 996 2365.83 1000.5 2347.5 1009.5C2329.17 1018.5 2313.83 1030.83 2301.5 1046.5C2289.17 1062.17 2279.83 1080.17 2273.5 1100.5C2267.17 1120.83 2264 1142 2264 1164C2264 1186 2267.67 1206.83 2275 1226.5C2282.33 1246.17 2292.67 1263.33 2306 1278C2319.33 1292.67 2335.33 1304.17 2354 1312.5C2372.67 1320.83 2393.67 1325 2417 1325C2442.33 1325 2464 1320.5 2482 1311.5C2500 1302.5 2516.67 1289.33 2532 1272L2596 1336C2572.67 1362 2545.5 1380.67 2514.5 1392C2483.5 1403.33 2450.67 1409 2416 1409C2379.33 1409 2345.83 1403 2315.5 1391C2285.17 1379 2259 1362.17 2237 1340.5C2215 1318.83 2198 1292.83 2186 1262.5C2174 1232.17 2168 1198.67 2168 1162C2168 1125.33 2174 1091.67 2186 1061C2198 1030.33 2214.83 1004 2236.5 982C2258.17 960 2284.17 942.833 2314.5 930.5C2344.83 918.167 2378.67 912 2416 912ZM1958 923L2048 923L2048 1397L1958 1397L1958 923ZM3128 983C3106 983 3085.83 987.167 3067.5 995.5C3049.17 1003.83 3033.67 1014.67 3021 1028C3008.33 1041.33 2998.5 1056.17 2991.5 1072.5C2984.5 1088.83 2981 1105 2981 1121L3265 1121C3264.33 1101 3261.17 1082.67 3255.5 1066C3249.83 1049.33 3241.33 1034.83 3230 1022.5C3218.67 1010.17 3204.5 1000.5 3187.5 993.5C3170.5 986.5 3150.67 983 3128 983Z" fill="#ef9f46" fill-rule="nonzero" opacity="1" stroke="#000000" stroke-linecap="butt" stroke-linejoin="round" stroke-opacity="0" stroke-width="5"/>
</g>
</svg>
