<?xml version="1.0" encoding="UTF-8" standalone="no"?>
<svg height="100%" stroke-miterlimit="10" style="fill-rule:nonzero;clip-rule:evenodd;stroke-linecap:round;stroke-linejoin:round;" version="1.1" viewBox="0 0 97.5 97.5" width="100%">
<defs/>
<path d="M9.07861 31.3054C10.4623 29.2142 12.7844 27.9648 15.2915 27.9648C18.321 27.9648 21.0229 29.7743 22.179 32.5761L34.4198 62.9528C34.4754 63.0903 34.5541 63.182 34.7604 63.182C35.0633 63.1788 35.1302 62.7087 35.2907 62.3108L55.3494 12.6946C56.4826 9.82885 59.2058 7.97841 62.2811 7.97841L62.5972 7.97841C65.0814 7.97841 67.3952 9.20985 68.7806 11.2748C70.1692 13.3414 70.0004 15.5002 69.067 17.8042L43.9118 81.2611C43.9118 81.2611 42.2875 85.6968 41.6832 86.5539C40.6004 88.0894 38.3656 89.754 35.0027 89.5179C31.6399 89.2819 29.1281 86.7675 28.5715 85.6433C22.387 73.1511 8.4285 38.3387 8.4285 38.3387C7.45251 36.0265 7.69651 33.3982 9.08024 31.3054M0 15.6585C1.95399e-14 19.9915 3.50928 23.5024 7.83406 23.5024C12.1621 23.5024 15.6681 19.9915 15.6681 15.6585C15.6681 11.3272 12.1638 7.81466 7.83406 7.81466C3.51092 7.81466 0.00163756 11.3272 0.00163756 15.6585" fill="#00a1a1" fill-rule="nonzero" opacity="1" stroke="#00a1a1" stroke-linecap="butt" stroke-linejoin="miter" stroke-opacity="0" stroke-width="1.25"/>
<path d="M88.5035 66.1883C87.1088 68.2722 84.7802 69.5094 82.2731 69.4963C79.2437 69.4804 76.5513 67.6568 75.4099 64.8489L63.3286 34.4084C63.2737 34.2706 63.1955 34.1785 62.9892 34.1774C62.6863 34.1791 62.6169 34.6488 62.4544 35.0459L42.1357 84.5562C40.9875 87.4159 38.2546 89.2521 35.1793 89.2359L34.8633 89.2343C32.3792 89.2213 30.0718 87.9777 28.6973 85.9055C27.3195 83.8317 27.4996 81.6738 28.4451 79.3747L53.9327 16.0506C53.9327 16.0506 55.5802 11.6235 56.1891 10.7696C57.2799 9.23978 59.5234 7.58694 62.885 7.8406C66.2465 8.09427 68.7451 10.6218 69.2958 11.7489C75.4147 24.2734 89.1905 59.1585 89.1905 59.1585C90.1543 61.4758 89.8965 64.1028 88.5018 66.1883M97.4999 81.8825C97.5226 77.5496 94.0318 74.0204 89.7071 73.9977C85.3791 73.975 81.8547 77.4675 81.832 81.8004C81.8093 86.1316 85.2952 89.6625 89.6248 89.6852C93.9479 89.7079 97.4755 86.2138 97.4983 81.8825" fill="#00a1a1" fill-rule="nonzero" opacity="1" stroke="#00a1a1" stroke-linecap="butt" stroke-linejoin="miter" stroke-opacity="0" stroke-width="1.25" />
</svg>
